<svg width="600" height="600" viewBox="0 0 600 600" fill="none" xmlns="http://www.w3.org/2000/svg">
<rect width="600" height="600" rx="100" fill="#4A6741"/>
<circle cx="103.26" cy="103.26" r="103.26" transform="matrix(1 0 0 -1 259.48 348.399)" fill="#F7F5F0"/>
<path d="M260.464 199.198C284.256 204.911 290.927 235.675 308.347 252.857C321.276 265.608 337.92 272.888 349.422 286.939C364.121 304.898 385.765 322.432 384.251 345.59C382.745 368.634 356.873 381.041 342.109 398.798C326.923 417.062 318.123 442.182 296.247 451.436C273.674 460.984 246.074 459.825 224.26 448.649C203.512 438.02 198.684 411.248 183.414 393.632C168.088 375.951 138.988 368.18 134.586 345.2C130.196 322.285 151.567 303.203 162.103 282.386C172.183 262.466 178.037 240.074 195.083 225.657C213.406 210.161 237.131 193.595 260.464 199.198Z" fill="#DE9D59"/>
</svg>
