<svg width="1806" height="390" viewBox="0 0 1806 390" fill="none" xmlns="http://www.w3.org/2000/svg">
<g clip-path="url(#clip0_3_1841)">
<circle cx="127.644" cy="127.644" r="127.644" transform="matrix(1 0 0 -1 155.66 254.977)" fill="#F7F5F0"/>
<path d="M156.876 70.543C186.286 77.6055 194.533 115.634 216.067 136.873C232.049 152.636 252.623 161.634 266.841 179.004C285.012 201.204 311.767 222.878 309.896 251.505C308.034 279.991 276.052 295.328 257.802 317.278C239.03 339.855 228.151 370.907 201.11 382.346C173.206 394.149 139.089 392.716 112.123 378.902C86.4748 365.762 80.5078 332.667 61.6316 310.891C42.6862 289.036 6.71484 279.43 1.27275 251.023C-4.15374 222.697 22.2643 199.109 35.2873 173.376C47.7486 148.752 54.9845 121.072 76.0561 103.251C98.7053 84.0953 128.033 63.6165 156.876 70.543Z" fill="#DE9D59"/>
<rect x="501.746" y="80.0377" width="671.307" height="228.687" rx="22.131" fill="#DE9D59"/>
<path d="M662.489 194.004L666.528 157.508H665.014L652.897 185.194L612.001 250.888H600.389L556.969 184.943L545.104 157.759H543.59L548.891 193.752V282.35H513.549V106.161H547.376L598.369 187.46L607.962 206.84H609.224L617.555 186.956L666.276 106.161H699.851V282.35H662.489V194.004Z" fill="#F7F5F0"/>
<path d="M746.594 126.297H726.398V106.161H804.15V126.297H783.955V262.214H804.15V282.35H726.398V262.214H746.594V126.297Z" fill="#F7F5F0"/>
<path d="M878.291 190.48L863.145 164.052H861.882L865.921 190.732V282.35H830.58V104.903H857.591L930.546 198.786L944.936 224.459H946.45L942.411 198.534V106.161H977.753V283.608H950.742L878.291 190.48Z" fill="#F7F5F0"/>
<path d="M1010.54 106.161C1014.25 105.658 1018.45 105.238 1023.16 104.903C1028.05 104.567 1033.01 104.315 1038.06 104.148C1043.28 103.98 1048.32 103.896 1053.21 103.896C1058.09 103.728 1062.46 103.644 1066.33 103.644C1083.16 103.644 1097.55 105.909 1109.5 110.44C1121.62 114.803 1131.46 120.927 1139.04 128.814C1146.78 136.701 1152.41 146.097 1155.95 157.004C1159.48 167.911 1161.25 179.825 1161.25 192.745C1161.25 204.491 1159.48 215.901 1155.95 226.976C1152.58 238.051 1147.03 247.951 1139.29 256.677C1131.55 265.234 1121.45 272.114 1108.99 277.316C1096.54 282.518 1081.23 285.118 1063.05 285.118C1060.19 285.118 1056.23 285.035 1051.19 284.867C1046.31 284.699 1041.17 284.447 1035.79 284.112C1030.57 283.944 1025.6 283.692 1020.89 283.357C1016.35 283.189 1012.9 282.937 1010.54 282.601V106.161ZM1069.11 136.365C1065.24 136.365 1061.28 136.449 1057.24 136.617C1053.21 136.617 1050.09 136.784 1047.9 137.12V251.391C1048.75 251.559 1050.01 251.727 1051.69 251.894C1053.54 251.894 1055.39 251.978 1057.24 252.146C1059.26 252.146 1061.11 252.23 1062.8 252.398C1064.65 252.398 1066 252.398 1066.84 252.398C1077.61 252.398 1086.53 250.72 1093.6 247.364C1100.66 244.008 1106.22 239.561 1110.26 234.024C1114.46 228.486 1117.41 222.194 1119.09 215.146C1120.78 208.099 1121.62 200.8 1121.62 193.249C1121.62 187.04 1120.86 180.58 1119.34 173.868C1117.83 167.156 1115.05 161.031 1111.01 155.494C1107.14 149.957 1101.84 145.426 1095.11 141.902C1088.38 138.211 1079.71 136.365 1069.11 136.365Z" fill="#F7F5F0"/>
<path d="M1187.81 108.922C1191.85 108.251 1196.22 107.665 1200.93 107.162C1205.81 106.492 1210.69 105.99 1215.57 105.655C1220.45 105.32 1225.16 105.068 1229.71 104.901C1234.42 104.733 1238.71 104.649 1242.58 104.649C1251.5 104.649 1260.25 105.403 1268.83 106.911C1277.58 108.419 1285.32 111.016 1292.05 114.702C1298.95 118.387 1304.51 123.497 1308.71 130.031C1312.92 136.398 1315.02 144.439 1315.02 154.156C1315.02 168.564 1311.4 180.46 1304.17 189.842C1297.1 199.056 1287.26 205.339 1274.64 208.689L1288.01 216.48L1332.19 283.076H1288.77L1244.85 214.972L1225.16 211.956V283.076H1187.81V108.922ZM1245.1 137.319C1241.23 137.319 1237.45 137.403 1233.75 137.57C1230.21 137.57 1227.35 137.822 1225.16 138.324V186.826H1241.07C1251.67 186.826 1260 184.816 1266.05 180.795C1272.28 176.774 1275.39 169.821 1275.39 159.936C1275.39 152.565 1272.79 146.952 1267.57 143.099C1262.35 139.246 1254.86 137.319 1245.1 137.319Z" fill="#F7F5F0"/>
<path d="M1352.47 107.162H1466.3V139.832H1389.82V178.03H1459.24V210.7H1389.82V250.406H1467.57V283.076H1352.47V107.162Z" fill="#F7F5F0"/>
<path d="M1495.43 108.922C1503.01 107.581 1511.42 106.576 1520.67 105.906C1529.93 105.068 1539.18 104.649 1548.44 104.649C1557.86 104.649 1567.37 105.403 1576.96 106.911C1586.55 108.251 1595.14 111.1 1602.71 115.455C1610.45 119.644 1616.76 125.591 1621.64 133.298C1626.52 140.837 1628.96 150.889 1628.96 163.455C1628.96 174.512 1626.86 183.978 1622.65 191.852C1618.44 199.559 1612.8 205.841 1605.74 210.7C1598.84 215.558 1590.93 219.16 1582.01 221.506C1573.09 223.684 1563.92 224.773 1554.5 224.773C1553.66 224.773 1552.23 224.773 1550.21 224.773C1548.19 224.773 1546 224.773 1543.64 224.773C1541.46 224.605 1539.35 224.438 1537.33 224.27C1535.31 224.103 1533.8 223.935 1532.79 223.768V283.076H1495.43V108.922ZM1550.96 137.319C1547.43 137.319 1543.98 137.403 1540.62 137.57C1537.42 137.738 1534.81 138.073 1532.79 138.575V190.847C1533.46 191.014 1534.56 191.182 1536.07 191.349C1537.59 191.517 1539.18 191.685 1540.87 191.852C1542.55 191.852 1544.06 191.936 1545.41 192.103C1546.93 192.103 1548.1 192.103 1548.94 192.103C1553.82 192.103 1558.7 191.768 1563.58 191.098C1568.46 190.428 1572.76 189.004 1576.46 186.826C1580.33 184.648 1583.44 181.716 1585.8 178.03C1588.15 174.177 1589.33 169.067 1589.33 162.701C1589.33 157.34 1588.24 153.067 1586.05 149.884C1583.86 146.533 1580.92 143.937 1577.21 142.094C1573.68 140.251 1569.56 138.994 1564.85 138.324C1560.3 137.654 1555.68 137.319 1550.96 137.319Z" fill="#F7F5F0"/>
<path d="M1642.69 195.119C1642.69 180.711 1644.54 167.811 1648.24 156.418C1651.95 145.026 1657.25 135.476 1664.14 127.769C1671.21 119.895 1679.79 113.948 1689.89 109.927C1699.99 105.738 1711.43 103.644 1724.22 103.644C1737.85 103.644 1749.71 105.906 1759.81 110.429C1770.07 114.785 1778.57 120.984 1785.3 129.026C1792.2 137.068 1797.33 146.701 1800.7 157.926C1804.23 169.151 1806 181.549 1806 195.119C1806 209.527 1804.06 222.427 1800.19 233.82C1796.49 245.212 1791.11 254.846 1784.04 262.72C1776.97 270.427 1768.39 276.374 1758.29 280.563C1748.2 284.583 1736.84 286.594 1724.22 286.594C1710.59 286.594 1698.64 284.416 1688.38 280.06C1678.28 275.536 1669.78 269.254 1662.88 261.212C1656.15 253.17 1651.1 243.537 1647.74 232.312C1644.37 221.087 1642.69 208.689 1642.69 195.119ZM1682.32 195.119C1682.32 203.831 1683.16 211.789 1684.84 218.993C1686.53 226.197 1689.05 232.396 1692.42 237.589C1695.78 242.783 1700.07 246.804 1705.29 249.652C1710.67 252.5 1716.98 253.924 1724.22 253.924C1737.51 253.924 1747.86 249.401 1755.27 240.354C1762.67 231.307 1766.37 216.229 1766.37 195.119C1766.37 186.742 1765.61 178.952 1764.1 171.748C1762.59 164.544 1760.06 158.345 1756.53 153.151C1753.16 147.79 1748.79 143.685 1743.4 140.837C1738.19 137.822 1731.79 136.314 1724.22 136.314C1711.09 136.314 1700.83 141.005 1693.42 150.387C1686.02 159.769 1682.32 174.68 1682.32 195.119Z" fill="#F7F5F0"/>
</g>
<defs>
<clipPath id="clip0_3_1841">
<rect width="1806" height="390" fill="white"/>
</clipPath>
</defs>
</svg>
